<svg width="80" height="120" xmlns="http://www.w3.org/2000/svg">
  <defs>
    <linearGradient id="buildingGrad2" x1="0%" y1="0%" x2="100%" y2="0%">
      <stop offset="0%" style="stop-color:#7c3aed;stop-opacity:1" />
      <stop offset="100%" style="stop-color:#5b21b6;stop-opacity:1" />
    </linearGradient>
    <linearGradient id="windowGrad2" x1="0%" y1="0%" x2="0%" y2="100%">
      <stop offset="0%" style="stop-color:#60a5fa;stop-opacity:0.9" />
      <stop offset="100%" style="stop-color:#1e40af;stop-opacity:1" />
    </linearGradient>
  </defs>
  
  <!-- Shadow -->
  <ellipse cx="40" cy="115" rx="35" ry="5" fill="#000000" opacity="0.3"/>
  
  <!-- Building -->
  <rect x="5" y="10" width="70" height="100" fill="url(#buildingGrad2)" stroke="#4c1d95" stroke-width="2"/>
  
  <!-- Windows - 4 columns × 6 rows -->
  <rect x="12" y="18" width="10" height="12" fill="url(#windowGrad2)"/>
  <rect x="27" y="18" width="10" height="12" fill="url(#windowGrad2)"/>
  <rect x="42" y="18" width="10" height="12" fill="url(#windowGrad2)"/>
  <rect x="57" y="18" width="10" height="12" fill="url(#windowGrad2)"/>
  
  <rect x="12" y="33" width="10" height="12" fill="url(#windowGrad2)"/>
  <rect x="27" y="33" width="10" height="12" fill="url(#windowGrad2)"/>
  <rect x="42" y="33" width="10" height="12" fill="url(#windowGrad2)"/>
  <rect x="57" y="33" width="10" height="12" fill="url(#windowGrad2)"/>
  
  <rect x="12" y="48" width="10" height="12" fill="url(#windowGrad2)"/>
  <rect x="27" y="48" width="10" height="12" fill="url(#windowGrad2)"/>
  <rect x="42" y="48" width="10" height="12" fill="url(#windowGrad2)"/>
  <rect x="57" y="48" width="10" height="12" fill="url(#windowGrad2)"/>
  
  <rect x="12" y="63" width="10" height="12" fill="url(#windowGrad2)"/>
  <rect x="27" y="63" width="10" height="12" fill="url(#windowGrad2)"/>
  <rect x="42" y="63" width="10" height="12" fill="url(#windowGrad2)"/>
  <rect x="57" y="63" width="10" height="12" fill="url(#windowGrad2)"/>
  
  <rect x="12" y="78" width="10" height="12" fill="url(#windowGrad2)"/>
  <rect x="27" y="78" width="10" height="12" fill="url(#windowGrad2)"/>
  <rect x="42" y="78" width="10" height="12" fill="url(#windowGrad2)"/>
  <rect x="57" y="78" width="10" height="12" fill="url(#windowGrad2)"/>
  
  <rect x="12" y="93" width="10" height="12" fill="url(#windowGrad2)"/>
  <rect x="27" y="93" width="10" height="12" fill="url(#windowGrad2)"/>
  <rect x="42" y="93" width="10" height="12" fill="url(#windowGrad2)"/>
  <rect x="57" y="93" width="10" height="12" fill="url(#windowGrad2)"/>
  
  <!-- Roof antenna -->
  <rect x="38" y="3" width="4" height="7" fill="#6b7280"/>
  <circle cx="40" cy="3" r="3" fill="#ef4444"/>
</svg>
